<?xml version="1.0" standalone="no"?>
<!DOCTYPE svg PUBLIC "-//W3C//DTD SVG 20010904//EN"
 "http://www.w3.org/TR/2001/REC-SVG-20010904/DTD/svg10.dtd">
<svg version="1.0" xmlns="http://www.w3.org/2000/svg"
 width="809.000000pt" height="710.000000pt" viewBox="0 0 809.000000 710.000000"
 preserveAspectRatio="xMidYMid meet">

<g transform="translate(0.000000,710.000000) scale(0.100000,-0.100000)"
fill="#000000" stroke="none">
<path d="M0 3550 l0 -3550 4045 0 4045 0 0 3550 0 3550 -4045 0 -4045 0 0
-3550z m2140 2843 c69 -23 100 -51 130 -115 44 -93 52 -168 48 -450 -4 -236
-6 -257 -27 -313 -29 -73 -92 -139 -153 -157 -24 -7 -91 -13 -153 -13 -128 0
-187 20 -247 83 -74 78 -92 184 -85 493 5 246 16 313 65 384 69 99 266 140
422 88z m889 0 c76 -24 124 -73 152 -160 21 -62 23 -91 27 -323 4 -283 -3
-356 -46 -435 -55 -101 -149 -141 -312 -133 -158 8 -240 67 -282 200 -21 68
-23 90 -23 328 0 281 9 342 63 429 65 105 249 146 421 94z m1631 0 c69 -23 96
-48 129 -116 46 -94 53 -163 49 -449 -4 -236 -6 -257 -27 -313 -28 -71 -92
-138 -148 -155 -69 -21 -213 -24 -274 -7 -88 26 -136 63 -169 132 -43 88 -53
175 -47 434 6 315 31 392 145 454 87 47 235 56 342 20z m-3350 -518 l0 -515
-95 0 -95 0 0 360 0 360 -120 0 -120 0 0 70 0 70 49 0 c98 0 190 52 223 126
l19 44 69 0 70 0 0 -515z m2520 0 l0 -515 -95 0 -95 0 0 360 0 360 -120 0
-120 0 0 70 0 70 49 0 c98 0 190 52 223 126 l19 44 69 0 70 0 0 -515z m1630 0
l0 -515 -95 0 -95 0 -2 358 -3 357 -117 3 -118 3 0 69 0 70 50 0 c94 0 184 52
220 126 l22 44 69 0 69 0 0 -515z m740 0 l0 -515 -100 0 -100 0 0 360 0 360
-115 0 -115 0 0 69 0 68 63 5 c34 3 81 15 103 26 47 24 101 81 110 117 6 24
10 25 80 25 l74 0 0 -515z m740 0 l0 -515 -100 0 -100 0 0 360 0 359 -117 3
-118 3 -1 55 c-1 76 2 80 52 80 96 0 212 73 230 145 6 24 9 25 80 25 l74 0 0
-515z m-4847 -900 c149 -51 187 -157 187 -528 0 -311 -23 -401 -117 -473 -80
-61 -274 -72 -384 -22 -79 36 -115 77 -141 161 -22 67 -23 90 -23 342 0 252 1
275 23 342 12 39 34 86 48 103 34 39 109 77 176 89 63 11 178 4 231 -14z
m3767 -9 c125 -49 170 -185 170 -521 0 -318 -41 -440 -170 -499 -38 -17 -65
-21 -165 -21 -104 0 -127 3 -171 23 -28 13 -65 38 -83 56 -69 71 -97 237 -88
521 10 289 41 374 160 436 81 42 246 45 347 5z m-2915 -7 c104 -28 156 -96
163 -218 7 -128 -28 -209 -108 -248 -26 -13 -37 -22 -26 -23 33 0 86 -41 106
-81 15 -28 20 -59 20 -116 1 -120 17 -259 34 -294 9 -18 16 -34 16 -36 0 -1
-49 -3 -109 -3 l-108 0 -6 28 c-3 15 -9 91 -12 167 -9 176 -17 210 -55 230
-16 8 -70 18 -120 22 l-90 6 0 -227 0 -226 -95 0 -95 0 0 520 0 520 223 -6
c122 -3 240 -10 262 -15z m1585 -59 l0 -80 -174 0 -175 0 -3 -126 c-2 -69 -1
-128 1 -130 2 -2 76 -4 163 -4 l158 0 0 -75 0 -75 -160 0 -160 0 0 -160 0
-160 175 0 175 0 0 -75 0 -75 -275 0 -275 0 0 519 0 520 275 1 275 1 0 -81z
m2051 -228 c37 -167 69 -305 71 -307 2 -2 27 105 56 238 30 133 60 272 69 310
l15 67 154 0 154 0 0 -520 0 -520 -100 0 -100 0 -2 421 -3 422 -89 -409 c-49
-225 -91 -415 -94 -421 -3 -9 -25 -13 -62 -13 l-58 0 -16 73 c-9 39 -52 232
-95 427 l-79 355 -1 -427 -1 -428 -100 0 -100 0 0 513 c0 283 3 517 7 521 4 3
74 5 157 4 l149 -3 68 -303z m-5261 -217 l0 -515 -95 0 -95 0 -2 358 -3 357
-117 3 -118 3 0 69 0 70 49 0 c98 0 184 48 221 125 l22 45 69 0 69 0 0 -515z
m2370 0 l0 -515 -95 0 -95 0 -2 358 -3 357 -117 3 -118 3 0 69 0 70 48 0 c101
0 195 56 228 136 14 34 14 34 84 34 l70 0 0 -515z m1380 0 l0 -515 -100 0
-100 0 0 360 0 359 -117 3 -117 3 1 65 1 65 65 7 c101 10 184 64 208 135 l11
33 74 0 74 0 0 -515z m-2977 -840 c149 -51 187 -157 187 -528 0 -311 -23 -401
-117 -473 -80 -61 -274 -72 -384 -22 -79 36 -115 77 -141 161 -22 67 -23 90
-23 342 0 252 1 275 23 342 12 39 34 86 48 103 34 39 109 77 176 89 63 11 178
4 231 -14z m3019 -3 c92 -31 147 -119 162 -259 l7 -63 -94 0 -93 0 -12 73 c-9
58 -16 76 -38 96 -55 47 -148 5 -173 -78 -7 -25 -11 -130 -11 -292 0 -226 2
-258 19 -295 24 -53 55 -74 108 -74 70 0 103 54 103 173 l0 57 100 0 c80 0
100 -3 100 -14 0 -61 -26 -181 -50 -233 -50 -108 -135 -150 -284 -141 -151 10
-232 67 -273 192 -21 67 -31 511 -13 614 21 121 65 193 142 233 77 40 204 44
300 11z m806 2 c75 -21 125 -73 152 -161 50 -162 53 -555 4 -709 -21 -67 -70
-125 -132 -156 -41 -20 -61 -23 -167 -23 -105 0 -127 3 -172 24 -74 33 -117
85 -145 173 -21 68 -23 90 -23 328 0 281 9 342 63 429 65 105 242 145 420 95z
m-4428 -74 l0 -80 -180 0 -180 0 0 -130 0 -130 170 0 170 0 0 -75 0 -75 -170
0 -170 0 0 -235 0 -235 -95 0 -95 0 0 520 0 520 275 0 275 0 0 -80z m1455 59
c104 -28 156 -96 163 -218 7 -128 -28 -209 -108 -248 -26 -13 -37 -22 -26 -23
33 0 86 -41 106 -81 15 -28 20 -59 20 -116 1 -120 17 -259 34 -294 9 -18 16
-34 16 -36 0 -1 -49 -3 -109 -3 l-108 0 -6 28 c-3 15 -9 91 -12 167 -9 176
-17 210 -55 230 -16 8 -70 18 -120 22 l-90 6 0 -227 0 -226 -95 0 -95 0 0 520
0 520 223 -6 c122 -3 240 -10 262 -15z m1585 -59 l0 -80 -174 0 -175 0 -3
-126 c-2 -69 -1 -128 1 -130 2 -2 76 -4 163 -4 l158 0 0 -75 0 -75 -160 0
-160 0 0 -160 0 -160 175 0 175 0 0 -75 0 -75 -275 0 -275 0 0 519 0 520 275
1 275 1 0 -81z m2064 63 c2 -10 33 -144 67 -298 34 -154 65 -283 68 -288 4 -4
35 122 70 280 34 159 64 296 67 306 5 15 21 17 160 17 l154 0 0 -520 0 -520
-100 0 -100 0 -1 428 -1 427 -79 -355 c-43 -195 -86 -388 -95 -427 l-15 -73
-60 0 c-32 0 -59 1 -59 3 0 1 -43 191 -94 422 l-94 420 -1 -422 -1 -423 -100
0 -100 0 0 520 0 520 154 0 c139 0 155 -2 160 -17z m-2904 -508 l0 -515 -95 0
-95 0 -2 358 -3 357 -117 3 -118 3 0 69 0 70 48 0 c101 0 195 56 228 136 14
34 14 34 84 34 l70 0 0 -515z m-1609 -895 c102 -30 155 -97 183 -232 22 -104
22 -492 1 -592 -17 -80 -52 -145 -98 -180 -72 -55 -242 -72 -358 -36 -91 28
-142 80 -172 174 -20 66 -22 89 -22 341 0 253 1 275 23 342 26 84 61 129 125
161 78 39 224 49 318 22z m3019 -2 c94 -29 152 -108 170 -233 5 -38 10 -76 10
-82 0 -10 -25 -13 -93 -13 l-93 0 -12 73 c-9 58 -16 76 -38 96 -55 47 -148 5
-173 -78 -7 -25 -11 -130 -11 -292 0 -226 2 -258 19 -295 24 -53 55 -74 108
-74 70 0 103 54 103 173 l0 57 101 0 100 0 -6 -57 c-28 -255 -119 -345 -336
-330 -143 10 -216 61 -261 183 -20 53 -22 83 -26 307 -5 322 12 423 86 500 72
76 224 104 352 65z m819 -5 c77 -24 124 -73 151 -160 49 -156 50 -578 1 -718
-24 -71 -90 -138 -154 -157 -23 -7 -91 -13 -152 -13 -94 0 -118 4 -162 24 -74
33 -117 85 -145 173 -21 68 -23 90 -23 328 0 281 9 342 63 429 65 105 249 146
421 94z m-4431 -75 l3 -78 -181 0 -180 0 0 -130 0 -130 170 0 170 0 0 -75 0
-75 -170 0 -170 0 0 -235 0 -235 -95 0 -95 0 0 520 0 520 273 -2 272 -3 3 -77z
m1457 61 c104 -27 155 -95 163 -219 7 -127 -28 -208 -108 -247 -26 -13 -37
-22 -26 -23 35 0 88 -42 107 -84 13 -29 19 -65 19 -121 1 -117 17 -251 34
-287 9 -17 16 -33 16 -35 0 -1 -49 -3 -109 -3 l-108 0 -6 29 c-3 16 -9 93 -12
172 -4 79 -11 159 -17 177 -13 44 -54 61 -164 69 l-84 6 0 -227 0 -226 -95 0
-95 0 0 520 0 521 223 -6 c122 -4 240 -11 262 -16z m933 -61 l3 -78 -116 0
-115 0 0 -440 0 -440 -100 0 -100 0 0 440 0 440 -110 0 -110 0 0 80 0 80 323
-2 322 -3 3 -77z m652 2 l0 -80 -175 0 -175 0 0 -130 0 -130 160 0 160 0 0
-75 0 -75 -160 0 -160 0 0 -160 0 -160 175 0 175 0 0 -75 0 -75 -275 0 -275 0
0 520 0 520 275 0 275 0 0 -80z m2062 68 c3 -7 33 -145 69 -305 35 -161 66
-293 69 -293 3 0 32 120 64 268 32 147 62 284 67 305 l10 38 152 -3 152 -3 3
-517 2 -518 -100 0 -100 0 -1 428 -1 427 -79 -355 c-43 -195 -86 -388 -95
-427 l-15 -73 -59 0 c-54 0 -60 2 -65 23 -3 12 -46 202 -94 422 l-89 400 -1
-422 -1 -423 -100 0 -100 0 0 520 0 520 154 0 c114 0 155 -3 158 -12z"/>
<path d="M1934 6251 c-34 -15 -62 -58 -74 -114 -8 -34 -11 -137 -8 -292 3
-226 4 -242 26 -282 27 -52 47 -63 110 -63 62 0 94 24 119 88 16 41 18 77 17
282 -1 256 -8 301 -52 351 -21 24 -38 32 -72 35 -25 2 -55 0 -66 -5z"/>
<path d="M2812 6240 c-62 -39 -67 -64 -67 -355 0 -229 2 -266 18 -308 22 -55
59 -80 120 -79 52 1 85 24 110 80 21 44 22 62 22 292 0 267 -7 310 -60 360
-34 32 -100 37 -143 10z"/>
<path d="M4465 6253 c-27 -7 -54 -32 -74 -68 -14 -26 -16 -68 -16 -300 0 -244
2 -275 19 -313 24 -53 56 -74 112 -74 57 0 91 22 115 75 17 38 19 68 19 292 0
269 -5 308 -48 356 -27 31 -82 44 -127 32z"/>
<path d="M1894 4830 c-30 -12 -62 -56 -75 -103 -7 -25 -9 -134 -7 -296 3 -222
5 -260 21 -288 24 -45 58 -65 112 -65 59 0 92 22 117 78 18 41 19 64 16 312
-3 234 -5 271 -21 300 -32 59 -104 86 -163 62z"/>
<path d="M5628 4825 c-14 -8 -37 -36 -50 -62 -22 -47 -23 -56 -23 -303 0 -281
5 -311 56 -355 23 -18 42 -25 74 -25 63 0 92 17 117 69 22 44 23 56 23 306 0
253 -1 261 -24 308 -35 72 -107 97 -173 62z"/>
<path d="M2650 4680 l0 -140 88 0 c110 0 145 18 163 82 18 67 6 148 -26 176
-23 20 -37 22 -126 22 l-99 0 0 -140z"/>
<path d="M1894 3470 c-30 -12 -62 -56 -75 -103 -7 -25 -9 -134 -7 -296 3 -222
5 -260 21 -288 24 -45 58 -65 112 -65 59 0 92 22 117 78 18 41 19 64 16 312
-3 234 -5 271 -21 300 -32 59 -104 86 -163 62z"/>
<path d="M5702 3460 c-60 -37 -66 -66 -70 -337 -4 -269 5 -333 55 -379 35 -33
118 -34 158 -2 52 40 58 73 63 308 5 290 -13 381 -83 414 -44 21 -83 20 -123
-4z"/>
<path d="M2650 3320 l0 -140 88 0 c110 0 145 18 163 82 18 67 6 148 -26 176
-23 20 -37 22 -126 22 l-99 0 0 -140z"/>
<path d="M1895 2051 c-11 -5 -28 -18 -38 -29 -41 -45 -46 -86 -46 -342 0 -270
9 -325 60 -363 36 -26 109 -25 148 2 57 41 63 77 59 372 -3 231 -5 268 -21
297 -32 59 -104 86 -162 63z"/>
<path d="M5702 2040 c-62 -39 -67 -64 -67 -360 0 -255 1 -267 23 -311 25 -52
54 -69 117 -69 53 0 97 33 117 88 18 50 18 509 0 567 -26 89 -119 130 -190 85z"/>
<path d="M2650 1900 l0 -140 88 0 c110 0 145 18 163 82 18 67 6 148 -26 176
-23 20 -37 22 -126 22 l-99 0 0 -140z"/>
</g>
</svg>
